<svg baseProfile="tiny" xmlns="http://www.w3.org/2000/svg" preserveAspectRatio="xMinYMin meet" viewBox="0 0 580 50" width="580" height="50"><g fill="#7F8398" fill-rule="evenodd"><path d="M28.003 27.042a1 1 0 0 0-1 1v7.008H2V2h25.003v4.01a1 1 0 1 0 2 0V1a1 1 0 0 0-1-1H1a1 1 0 0 0-1 1v35.05a1 1 0 0 0 1 1h27.003a1 1 0 0 0 1-1v-8.008a1 1 0 0 0-1-1"/><path d="M34.124 14.347l-3.467-3.468 1.425-1.426 3.468 3.468-1.426 1.426zM16.113 28.89l.89-3.322L19.435 28l-3.322.89zm5.254-1.786l-1.026-1.027 11.342-11.343 1.027 1.027-11.343 11.343zm7.876-14.811l1.026 1.027-11.342 11.343-1.028-1.027 11.344-11.343zm8.428-.08l-4.882-4.881a1 1 0 0 0-1.414 0L15.778 22.929a1 1 0 0 0-.228.375c-.01.024-.023.047-.03.073l-1.787 6.668a.998.998 0 0 0 1.224 1.225l6.669-1.786c.026-.007.048-.022.073-.031a.876.876 0 0 0 .084-.035c.107-.05.208-.11.29-.192v-.001l15.598-15.597a.999.999 0 0 0 0-1.414zM6 29.06a1 1 0 1 0 0 2h4a1 1 0 1 0 0-2H6zm7-7a1 1 0 0 0-1-1H6a1 1 0 1 0 0 2h6a1 1 0 0 0 1-1m8-8a1 1 0 0 0-1-1H6a1 1 0 1 0 0 2h14a1 1 0 0 0 1-1m3-8a1 1 0 0 0-1-1H6a1 1 0 1 0 0 2h17a1 1 0 0 0 1-1"/></g><g transform="translate(45)"><title>587E4B04-E11F-4694-9F00-8A91364A0F50</title><g fill="#7F8398" fill-rule="evenodd"><path d="M37.982 32.99c0 1.102-.897 2-2 2H4c-1.103 0-2-.898-2-2V4c0-1.103.897-2 2-2h31.982c1.103 0 2 .897 2 2v28.99zm-2-32.99H4C1.794 0 0 1.794 0 4v28.99c0 2.205 1.794 4 4 4h31.982c2.206 0 4-1.795 4-4V4c0-2.206-1.794-4-4-4z"/><path d="M31.992 14.021c-.565 0-1.026-.46-1.026-1.025a1.027 1.027 0 1 1 1.026 1.025m-6.506 6.822a1.027 1.027 0 1 1 .001-2.049 1.027 1.027 0 0 1 0 2.049m-7.533-7.847a1.028 1.028 0 0 1 2.053 0 1.027 1.027 0 0 1-2.053 0m-5.48 7.847a1.027 1.027 0 0 1 0-2.052 1.027 1.027 0 0 1 0 2.052M31.992 9.97a3.03 3.03 0 0 0-3.026 3.026c0 .502.134.966.351 1.383l-2.65 2.653a2.99 2.99 0 0 0-1.18-.24 2.99 2.99 0 0 0-1.298.302l-2.597-2.597a3 3 0 0 0 .415-1.5A3.03 3.03 0 0 0 18.98 9.97a3.03 3.03 0 0 0-3.026 3.026c0 .508.14.98.361 1.402l-2.642 2.643a2.982 2.982 0 0 0-1.199-.25 3.028 3.028 0 0 0-3.025 3.026 3.029 3.029 0 0 0 3.025 3.026 3.03 3.03 0 0 0 3.027-3.026c0-.512-.14-.988-.365-1.41l2.638-2.64c.37.162.777.255 1.206.255.387 0 .755-.08 1.095-.213l2.696 2.697a2.995 2.995 0 0 0-.31 1.31 3.03 3.03 0 0 0 3.025 3.027 3.03 3.03 0 0 0 3.027-3.026c0-.52-.144-1.002-.375-1.43l2.63-2.63a2.98 2.98 0 0 0 1.224.264 3.029 3.029 0 0 0 3.026-3.025 3.03 3.03 0 0 0-3.026-3.027"/><path d="M33.992 26.046h-26v-16a1 1 0 1 0-2 0v17a1 1 0 0 0 1 1h4v1a1 1 0 1 0 2 0v-1h5v1a1 1 0 1 0 2 0v-1h5v1a1 1 0 1 0 2 0v-1h5v1a1 1 0 1 0 2 0v-1a1 1 0 1 0 0-2"/></g></g><g transform="translate(90)"><title>9365C7CA-1E5C-4D1A-B21C-1C71FA20B3B3</title><g fill="#7F8398" fill-rule="evenodd"><path d="M35.99 26.983H24.07c-.028-.002-.05-.016-.079-.016-.027 0-.05.014-.077.016H16.07c-.027-.002-.05-.016-.078-.016-.027 0-.05.014-.077.016H4c-1.103 0-2-.897-2-2v-3.007h35.99v3.007c0 1.103-.897 2-2 2zm-18.999 6.023h6v-4.023h-6v4.023zM4.001 2h31.99c1.102 0 2 .897 2 2v15.976H2V4c0-1.103.896-2 2-2zm31.99-2H4C1.793 0 0 1.794 0 4v20.983c0 2.206 1.793 4 4 4h10.99v4.023h-3a1 1 0 0 0 0 2h16a1 1 0 1 0 0-2h-3v-4.023h11c2.205 0 4-1.794 4-4V4c0-2.206-1.795-4-4-4z"/><path d="M13.72 6.743a2.489 2.489 0 0 1 1.762-.729c.638 0 1.276.244 1.762.73l2.7 2.698 2.697-2.699a2.497 2.497 0 0 1 3.525 0 2.496 2.496 0 0 1 0 3.525l-6.223 6.224-6.224-6.224a2.497 2.497 0 0 1 0-3.525zm6.223 12.577l7.637-7.638a4.498 4.498 0 0 0 0-6.353 4.496 4.496 0 0 0-6.353 0l-1.284 1.285-1.285-1.285a4.496 4.496 0 0 0-6.353 0 4.498 4.498 0 0 0 0 6.353l7.638 7.638zm.048 3.994a1.176 1.176 0 1 0 0 2.353 1.176 1.176 0 0 0 0-2.353"/></g></g><g transform="translate(135)"><title>E9D9779C-7B08-4FE9-846E-9EF2A5DCA918</title><g fill="#7F8398" fill-rule="evenodd"><path d="M4 2h28c1.103 0 2 .897 2 2v4H2V4c0-1.103.897-2 2-2m25 28H4c-1.103 0-2-.897-2-2V10h32v12a1 1 0 1 0 2 0V4c0-2.206-1.794-4-4-4H4C1.794 0 0 1.794 0 4v24c0 2.206 1.794 4 4 4h25a1 1 0 1 0 0-2"/><path d="M5 5.997a.997.997 0 1 0 0-1.994.997.997 0 0 0 0 1.994m3 0a.997.997 0 1 0 0-1.994.997.997 0 0 0 0 1.994m3 0a.997.997 0 1 0 0-1.994.997.997 0 0 0 0 1.994m1.655 8.401a.999.999 0 0 0-1.414 0l-3.948 3.948a1.003 1.003 0 0 0 0 1.413l3.948 3.948a.997.997 0 0 0 1.414 0 .999.999 0 0 0 0-1.413l-3.241-3.242 3.24-3.24a.999.999 0 0 0 0-1.414m9.692 9.309a.997.997 0 0 0 1.414 0l3.947-3.947a.999.999 0 0 0 0-1.414l-3.947-3.949a1 1 0 0 0-1.414 1.414l3.24 3.242-3.24 3.24a.999.999 0 0 0 0 1.414m-3.269-11.039l-5 12a1 1 0 0 0 1.846.77l5-12a1 1 0 0 0-1.846-.77m20.63 19.625L37.414 30l1.293-1.293a.997.997 0 0 0-.313-1.626l-7-3a.999.999 0 0 0-1.313 1.313l3 7a.999.999 0 0 0 1.626.313L36 31.414l2.293 2.293a.997.997 0 0 0 1.414 0 .999.999 0 0 0 0-1.414"/></g></g><g transform="translate(180)"><title>5055290B-6D08-4C59-9572-09266E745757</title><path d="M26.908 26.979c-.448-1.729-2.008-3.018-3.876-3.018-1.868 0-3.429 1.289-3.876 3.018h-4.257c-.447-1.729-2.008-3.018-3.875-3.018-1.868 0-3.428 1.289-3.877 3.018H2v-8h10.15c.448 1.729 2.008 3.018 3.877 3.018 1.868 0 3.428-1.289 3.876-3.018h4.256c.448 1.729 2.008 3.018 3.876 3.018 1.868 0 3.429-1.289 3.876-3.018h6.116v8H26.908zm-3.876 3.018a2.021 2.021 0 0 1-2.018-2.018c0-1.112.906-2.018 2.018-2.018a2.02 2.02 0 0 1 2.017 2.018 2.02 2.02 0 0 1-2.017 2.018zm-12.008 0a2.02 2.02 0 0 1-2.018-2.018 2.02 2.02 0 0 1 2.018-2.018 2.02 2.02 0 0 1 2.017 2.018 2.02 2.02 0 0 1-2.017 2.018zm7.02-12.018a2.02 2.02 0 0 1-2.017 2.018 2.02 2.02 0 0 1-2.018-2.018 2.02 2.02 0 0 1 2.018-2.018 2.02 2.02 0 0 1 2.017 2.018zm12.009 0a2.021 2.021 0 0 1-2.018 2.018 2.02 2.02 0 0 1-2.017-2.018 2.02 2.02 0 0 1 2.017-2.018c1.112 0 2.018.906 2.018 2.018zm-22.906-9c.449 1.729 2.009 3.018 3.877 3.018 1.867 0 3.428-1.289 3.875-3.018h4.257c.447 1.729 2.008 3.018 3.876 3.018 1.868 0 3.428-1.289 3.876-3.018h11.119v8h-6.116c-.447-1.729-2.008-3.018-3.876-3.018-1.868 0-3.428 1.289-3.876 3.018h-4.256c-.448-1.729-2.008-3.018-3.876-3.018-1.869 0-3.429 1.289-3.877 3.018H2v-8h5.147zm3.877-3.018a2.02 2.02 0 0 1 2.017 2.018 2.02 2.02 0 0 1-2.017 2.018 2.02 2.02 0 0 1-2.018-2.018 2.02 2.02 0 0 1 2.018-2.018zm12.008 0a2.02 2.02 0 0 1 2.017 2.018 2.02 2.02 0 0 1-2.017 2.018 2.021 2.021 0 0 1-2.018-2.018c0-1.112.906-2.018 2.018-2.018zM39.027 0a1 1 0 0 0-1 1v5.979H26.908C26.46 5.25 24.9 3.961 23.032 3.961c-1.868 0-3.429 1.289-3.876 3.018h-4.257c-.447-1.729-2.008-3.018-3.875-3.018-1.868 0-3.428 1.289-3.877 3.018H2V1a1 1 0 1 0-2 0v33.958a1 1 0 0 0 2 0v-5.979h5.147c.449 1.729 2.009 3.018 3.877 3.018 1.867 0 3.428-1.289 3.875-3.018h4.257c.447 1.729 2.008 3.018 3.876 3.018 1.868 0 3.428-1.289 3.876-3.018h11.119v5.979a1 1 0 0 0 2 0V1a1 1 0 0 0-1-1z" fill="#7F8398" fill-rule="evenodd"/></g><g transform="translate(230)"><g fill="#7F8398" fill-rule="evenodd"><path d="M10.42 6.982A4.987 4.987 0 0 1 15.4 2a4.986 4.986 0 0 1 4.981 4.98 4.986 4.986 0 0 1-4.98 4.982 4.987 4.987 0 0 1-4.982-4.981m-7.056 15a1 1 0 0 0 1-1V18.39c2.826-2.688 6.401-4.13 10.037-4.354v6.938a1 1 0 1 0 2 0v-6.938c3.637.225 7.212 1.667 10.038 4.354v2.59a1 1 0 1 0 2 0v-3.01c0-.265-.106-.52-.293-.707a17.893 17.893 0 0 0-8.504-4.747 6.967 6.967 0 0 0 2.74-5.533A6.988 6.988 0 0 0 15.401 0a6.989 6.989 0 0 0-6.982 6.98 6.965 6.965 0 0 0 2.741 5.533 17.895 17.895 0 0 0-8.504 4.748 1 1 0 0 0-.293.707v3.013a1 1 0 0 0 1 1M27.4 34.982A1.403 1.403 0 0 1 26 33.58c0-.773.629-1.401 1.4-1.401a1.402 1.402 0 0 1 0 2.802m-12 0A1.403 1.403 0 0 1 14 33.58c0-.773.629-1.401 1.4-1.401a1.402 1.402 0 0 1 0 2.802m-12 0A1.403 1.403 0 0 1 2 33.58c0-.773.629-1.401 1.4-1.401a1.402 1.402 0 0 1 0 2.802m25-4.635v-5.362a1 1 0 0 0-1-1h-24a1 1 0 0 0-1 1v5.362c-1.384.43-2.4 1.708-2.4 3.234a3.405 3.405 0 0 0 3.4 3.4c1.876 0 3.4-1.524 3.4-3.4a3.392 3.392 0 0 0-2.4-3.234v-4.362h10v4.362c-1.384.43-2.4 1.708-2.4 3.234a3.405 3.405 0 0 0 3.4 3.4c1.876 0 3.4-1.524 3.4-3.4a3.392 3.392 0 0 0-2.4-3.234v-4.362h10v4.362c-1.384.43-2.4 1.708-2.4 3.234a3.405 3.405 0 0 0 3.4 3.4c1.876 0 3.4-1.524 3.4-3.4a3.392 3.392 0 0 0-2.4-3.234"/></g></g><g transform="translate(270)"><g fill="#7F8398" fill-rule="evenodd"><path d="M3.582 8.98l16.422 6.897L36.427 8.98 20.004 2.085 3.582 8.98zm16.422 8.982a.998.998 0 0 1-.387-.078L.613 9.903a1.001 1.001 0 0 1 0-1.844L19.617.078a1 1 0 0 1 .774 0l19.006 7.98a1.001 1.001 0 0 1 0 1.845l-19.005 7.98a.998.998 0 0 1-.387.079z"/><path d="M20.004 23.997c-4.76 0-9.016-2.038-10.84-5.195a1 1 0 0 1-.134-.5v-5.034a1 1 0 1 1 2 0v4.753c1.533 2.389 5.095 3.976 8.974 3.976 3.878 0 7.44-1.587 8.974-3.974v-4.755a1 1 0 1 1 2 0v5.035c0 .175-.046.348-.134.502-1.825 3.154-6.08 5.192-10.84 5.192m16.826-3.021a.967.967 0 0 0-.35.14c-.01-.04-.024-.079-.024-.122 0-.056.016-.107.032-.158a.937.937 0 0 0 .342.14m.729.018c0 .035-.014.064-.02.097a.987.987 0 0 0-.314-.115.98.98 0 0 0 .307-.116c.01.044.027.086.027.134m1.39 2.527l-.824-1.618a1.431 1.431 0 0 0-.098-1.937V9.72a1 1 0 1 0-2 0v10.214a1.44 1.44 0 0 0-.468 1.06c0 .36.137.685.354.94l-.808 1.587a1.001 1.001 0 0 0 .892 1.453h2.06a1.001 1.001 0 0 0 .892-1.453"/></g></g><g transform="translate(315)"><path fill="#7F8398" fill-rule="evenodd" d="M32.493 19.568a5.456 5.456 0 0 1-5.354-4.445h10.707a5.455 5.455 0 0 1-5.353 4.445zm4.827-6.445h-9.697L32.47 3.42l4.85 9.702zM28.923 28.61v1h-17.91v-1c0-1.103.898-2 2-2h13.91c1.104 0 2 .897 2 2zM7.445 19.568a5.456 5.456 0 0 1-5.354-4.445h10.707a5.455 5.455 0 0 1-5.353 4.445zM7.466 3.42l4.85 9.702H2.617L7.466 3.42zm32.467 10.67c-.003-.065-.024-.13-.04-.195s-.025-.132-.052-.191c-.005-.01-.004-.02-.009-.03L33.365.737c-.016-.031-.04-.054-.058-.082a.964.964 0 0 0-.227-.361.999.999 0 0 0-1.414 0 7.722 7.722 0 0 1-5.495 2.276A7.721 7.721 0 0 1 20.678.294a1.005 1.005 0 0 0-1.416 0 7.723 7.723 0 0 1-5.495 2.276A7.726 7.726 0 0 1 8.27.294a.999.999 0 0 0-1.414 0 .974.974 0 0 0-.226.36c-.018.029-.043.052-.059.083L.106 13.675c-.005.01-.005.02-.009.03-.027.059-.036.126-.051.19-.016.067-.038.13-.04.197 0 .01-.006.02-.006.03 0 4.106 3.34 7.446 7.445 7.446 3.993 0 7.254-3.163 7.428-7.114a.991.991 0 0 0-.046-.78L9.872 3.759a9.744 9.744 0 0 0 9.097-.696V24.61h-5.955c-2.206 0-4 1.794-4 4v2a1 1 0 0 0 1 1h19.91a1 1 0 0 0 1-1v-2c0-2.206-1.794-4-4-4h-5.955V3.063a9.744 9.744 0 0 0 9.097.695l-4.956 9.917a.991.991 0 0 0-.045.779c.175 3.95 3.433 7.114 7.428 7.114 4.105 0 7.445-3.34 7.445-7.445 0-.011-.005-.02-.005-.031z"/></g><g transform="translate(360)"><title>F6EB81AE-C01A-4FDB-B049-2A9FC3FF03C3</title><g fill="#7F8398" fill-rule="evenodd"><path d="M15.285 22.712a.999.999 0 0 1 0-1.414l2.707-2.707A3.929 3.929 0 0 0 16 18.036 3.963 3.963 0 1 0 19.964 22c0-.73-.212-1.407-.557-1.996l-2.708 2.708a.999.999 0 0 1-1.414 0"/><path d="M32.14 8.06h-2.2V5.861l1.888-1.888.236 1.179a1 1 0 0 0 .784.784l1.179.236L32.14 8.06zm4.872-2.791a.997.997 0 0 0-.76-.69l-2.358-.473-.473-2.357a.996.996 0 0 0-.691-.76.99.99 0 0 0-.996.25L28.233 4.74a.996.996 0 0 0-.293.707v3.196l-1.376 1.375c-6.273-5.537-15.876-5.326-21.873.673A15.887 15.887 0 0 0 .006 22c0 3.937 1.427 7.646 4.012 10.569L.293 36.293a1 1 0 0 0 1.414 1.414l3.726-3.726A15.944 15.944 0 0 0 16 37.987c3.782 0 7.554-1.347 10.567-4.006l3.726 3.726A.995.995 0 0 0 31 38a.999.999 0 0 0 .707-1.707l-3.72-3.72a15.933 15.933 0 0 0 1.684-18.88 1 1 0 0 0-1.708 1.039 13.953 13.953 0 0 1-2.068 17.164c-5.455 5.458-14.334 5.455-19.79 0A13.905 13.905 0 0 1 2.005 22c0-3.738 1.457-7.252 4.1-9.895 5.216-5.218 13.554-5.434 19.046-.673l-1.416 1.416A11.892 11.892 0 0 0 16 10.01a11.908 11.908 0 0 0-8.478 3.512A11.91 11.91 0 0 0 4.01 22a11.91 11.91 0 0 0 3.512 8.479A11.908 11.908 0 0 0 16 33.991c3.203 0 6.214-1.247 8.478-3.512a11.998 11.998 0 0 0 2.308-13.723 1 1 0 1 0-1.798.875 9.998 9.998 0 0 1-1.924 11.434c-3.895 3.893-10.233 3.894-14.128 0-3.895-3.896-3.895-10.234 0-14.129 3.657-3.654 9.463-3.878 13.383-.673L20.883 15.7c-3.126-2.427-7.654-2.211-10.524.659A7.927 7.927 0 0 0 8.022 22c0 2.131.83 4.134 2.337 5.641a7.95 7.95 0 0 0 5.64 2.333 7.95 7.95 0 0 0 5.642-2.333 8.022 8.022 0 0 0 2.09-7.616 1 1 0 1 0-1.94.494 6.01 6.01 0 0 1-1.564 5.708 5.985 5.985 0 0 1-8.454 0A5.939 5.939 0 0 1 10.022 22a5.94 5.94 0 0 1 1.75-4.227c2.089-2.087 5.342-2.29 7.675-.637l-1.455 1.455c.585.344 1.07.828 1.415 1.413l2.226-2.225c.002-.003.006-.003.008-.006l.005-.009 2.822-2.821.01-.007.007-.011 2.813-2.812c.004-.004.008-.005.01-.008.005-.003.005-.008.009-.011l2.033-2.034h3.204c.265 0 .52-.105.707-.293l3.5-3.501a1 1 0 0 0 .25-.997z"/></g></g><g transform="translate(405)"><title>9DB77A23-D20A-42F9-B03C-B6546E84B3E2</title><path d="M32.242 28.162a.91.91 0 0 1-1.246.334.913.913 0 1 1 1.246-.334zm-14.059-2.296v-5.821l4.992-2.882v5.82l-4.992 2.883zm-1 10.991a.913.913 0 1 1 0-1.826.913.913 0 0 1 0 1.826zm-5.992-13.874v-5.82l4.992 2.882v5.821l-4.992-2.883zM3.37 28.496zm.334-16.811a.912.912 0 1 1-1.58-.91.912.912 0 0 1 1.58.91zm13.48.919l4.944 2.854-4.944 2.854-4.944-2.854 4.944-2.854zm0-10.604a.991.991 0 1 1-.002 1.982A.991.991 0 0 1 17.183 2zm13.813 8.439a.912.912 0 1 1 .913 1.58.913.913 0 0 1-.913-1.58zm1.912 14.744a2.912 2.912 0 0 0-3.314.295l-4.419-2.55v-6.92l4.428-2.557c.527.437 1.18.69 1.855.69.493 0 .993-.125 1.45-.389h.001a2.898 2.898 0 0 0 1.356-1.769 2.89 2.89 0 0 0-.29-2.21 2.89 2.89 0 0 0-1.769-1.357 2.896 2.896 0 0 0-2.21.291 2.91 2.91 0 0 0-1.403 3.018l-4.467 2.579-5.943-3.431V5.797a2.987 2.987 0 0 0 1.99-2.807A2.994 2.994 0 0 0 17.183 0a2.994 2.994 0 0 0-2.99 2.99c0 1.297.834 2.393 1.99 2.807v5.076l-5.944 3.431-4.466-2.579A2.912 2.912 0 0 0 4.37 8.707a2.89 2.89 0 0 0-2.21-.291A2.895 2.895 0 0 0 .391 9.773a2.894 2.894 0 0 0-.29 2.21 2.896 2.896 0 0 0 1.356 1.769c.457.264.957.389 1.451.389.675 0 1.327-.253 1.854-.69l4.43 2.557v6.919l-4.419 2.55a2.914 2.914 0 0 0-3.316-.294A2.896 2.896 0 0 0 .1 26.952a2.894 2.894 0 0 0 .291 2.21 2.892 2.892 0 0 0 1.768 1.357 2.9 2.9 0 0 0 2.21-.291 2.91 2.91 0 0 0 1.404-3.017l4.37-2.524 6.04 3.488v5.045a2.909 2.909 0 0 0-1.913 2.725 2.916 2.916 0 0 0 2.913 2.912 2.915 2.915 0 0 0 2.912-2.912 2.908 2.908 0 0 0-1.912-2.725v-5.045l6.04-3.488 4.37 2.524a2.908 2.908 0 0 0 2.855 3.409c.252 0 .507-.033.758-.101a2.886 2.886 0 0 0 1.768-1.357 2.89 2.89 0 0 0 .291-2.21 2.896 2.896 0 0 0-1.357-1.769z" fill="#7F8398" fill-rule="evenodd"/></g><g transform="translate(445)"><title>1B18147D-6703-4130-8069-97C9D70C42BB</title><g fill="#7F8398" fill-rule="evenodd"><path d="M21.111 30.974h-6.209c0-.007 0-.015-.002-.022-.306-2.466-1.493-4.892-3.257-6.656a8.931 8.931 0 0 1-2.636-6.357c0-4.958 4.034-8.992 8.992-8.992 4.958 0 8.992 4.034 8.992 8.992a8.93 8.93 0 0 1-2.633 6.357c-1.794 1.794-2.932 4.173-3.247 6.678zM18.003 41.01a3.01 3.01 0 0 1-2.83-2.015h5.661a3.01 3.01 0 0 1-2.83 2.015zm-3.015-4.014h6.03v-1.011h-6.03v1.01zm0-3.011h6.031v-1.011h-6.03v1.01zm14.003-16.046c0-6.062-4.93-10.992-10.992-10.992-6.06 0-10.992 4.93-10.992 10.992a10.916 10.916 0 0 0 3.266 7.816 9.58 9.58 0 0 1 2.643 5.444c.048.383.072.777.072 1.172v5.624a5.02 5.02 0 0 0 5.015 5.015 5.02 5.02 0 0 0 5.014-5.015l.002-5.624a.924.924 0 0 0-.006-.105c.03-2.41 1.056-4.853 2.76-6.556a10.915 10.915 0 0 0 3.218-7.771z"/><path d="M19.974 18a1.974 1.974 0 1 0-3.949 0 1.974 1.974 0 0 0 3.949 0M18 12.024a6.068 6.068 0 0 0-4.32 1.79.999.999 0 1 0 1.414 1.414A4.083 4.083 0 0 1 18 14.024a4.08 4.08 0 0 1 2.905 1.204.999.999 0 1 0 1.415-1.414 6.068 6.068 0 0 0-4.32-1.79m2.906 8.752A4.085 4.085 0 0 1 18 21.98a4.083 4.083 0 0 1-2.906-1.204 1 1 0 1 0-1.415 1.414 6.072 6.072 0 0 0 4.32 1.79 6.07 6.07 0 0 0 4.32-1.79.999.999 0 1 0-1.413-1.414M4 17H1a1 1 0 1 0 0 2h3a1 1 0 1 0 0-2m3.293 10.293l-2 2a.999.999 0 1 0 1.414 1.414l2-2a.999.999 0 1 0-1.414-1.414m21.414 0a.999.999 0 1 0-1.414 1.414l2 2a.997.997 0 0 0 1.414 0 .999.999 0 0 0 0-1.414l-2-2zM35 17h-3a1 1 0 1 0 0 2h3a1 1 0 1 0 0-2m-7-8a.997.997 0 0 0 .707-.293l2-2a.999.999 0 1 0-1.414-1.414l-2 2A.999.999 0 0 0 28 9M18 5a1 1 0 0 0 1-1V1a1 1 0 1 0-2 0v3a1 1 0 0 0 1 1M7.293 8.707a.997.997 0 0 0 1.414 0 .999.999 0 0 0 0-1.414l-2.021-2.02a1 1 0 0 0-1.414 1.413l2.021 2.021z"/></g></g><g transform="translate(490)"><title>1CAD0271-5384-4CC2-894A-7578331F4C72</title><g fill="#7F8398" fill-rule="evenodd"><path d="M4.085 5.038h4.89v1.99a1 1 0 1 0 2 0v-1.99h13.963v1.99a1 1 0 1 0 2 0v-1.99h4.953c1.148 0 2.084.936 2.084 2.085v3.958H2V7.123c0-1.149.936-2.085 2.085-2.085M19.78 35.04H2V13.081h31.974v1.411a1 1 0 1 0 2 0V7.123a4.089 4.089 0 0 0-4.083-4.085h-4.953V1a1 1 0 1 0-2 0v2.038H10.975V1.1a1 1 0 1 0-2 0v1.938h-4.89A4.089 4.089 0 0 0 0 7.123V36.04a1 1 0 0 0 1 1h18.78a1 1 0 1 0 0-2"/><path d="M29.596 29.45a2.682 2.682 0 0 1-2.679-2.68 2.682 2.682 0 0 1 2.68-2.678 2.682 2.682 0 0 1 2.678 2.678 2.682 2.682 0 0 1-2.679 2.68m0-7.358a4.683 4.683 0 0 0-4.679 4.678 4.684 4.684 0 0 0 4.68 4.68 4.684 4.684 0 0 0 4.678-4.68 4.683 4.683 0 0 0-4.679-4.678"/><path d="M37.973 28.049H36.41a1 1 0 0 0-.949.683c-.089.265-.2.534-.332.796a1 1 0 0 0 .187 1.155l1.107 1.107-1.807 1.808-1.107-1.108a1 1 0 0 0-1.155-.187c-.26.13-.53.243-.798.333a1 1 0 0 0-.682.948v1.564h-2.556v-1.564a1 1 0 0 0-.682-.948 6.12 6.12 0 0 1-.797-.333.997.997 0 0 0-1.155.187l-1.107 1.108-1.808-1.808 1.107-1.107a1 1 0 0 0 .187-1.155 6.159 6.159 0 0 1-.332-.796 1 1 0 0 0-.948-.683H21.22v-2.557h1.563a1 1 0 0 0 .948-.683 6.1 6.1 0 0 1 .332-.795.999.999 0 0 0-.187-1.155L22.77 21.75l1.808-1.807 1.107 1.107a.996.996 0 0 0 1.155.187c.267-.133.534-.246.795-.332a1 1 0 0 0 .684-.95v-1.562h2.556v1.563a1 1 0 0 0 .684.949c.262.087.53.199.796.332a.998.998 0 0 0 1.155-.187l1.107-1.107 1.807 1.807-1.107 1.108a1 1 0 0 0-.187 1.154c.132.265.244.532.332.796a1 1 0 0 0 .95.683h1.562v2.557zm1-4.557h-1.462l1.033-1.034a.999.999 0 0 0 0-1.414l-3.22-3.222a1.03 1.03 0 0 0-1.415 0l-1.035 1.035v-1.463a1 1 0 0 0-1-1h-4.556a1 1 0 0 0-1 1v1.463l-1.034-1.035a1.002 1.002 0 0 0-1.415 0l-3.22 3.222a.999.999 0 0 0 0 1.414l1.033 1.034H20.22a1 1 0 0 0-1 1v4.557a1 1 0 0 0 1 1h1.462l-1.034 1.034a.999.999 0 0 0 0 1.414l3.221 3.222a1 1 0 0 0 1.415 0l1.034-1.034v1.463a1 1 0 0 0 1 1h4.556a1 1 0 0 0 1-1v-1.463l1.035 1.034a1 1 0 0 0 1.414 0l3.221-3.222a.999.999 0 0 0 0-1.414l-1.033-1.034h1.462a1 1 0 0 0 1-1v-4.557a1 1 0 0 0-1-1z"/></g></g><g transform="translate(535)"><title>ED1F6723-2293-4544-AB4B-5410D752C398</title><path d="M33.332 22.312a1.085 1.085 0 0 1-1.532 0l-5.175-5.174a1 1 0 0 0-1.414 1.414l5.175 5.174a1.08 1.08 0 0 1 0 1.532 1.086 1.086 0 0 1-1.533 0l-5.174-5.174a1 1 0 0 0-1.414 1.415l5.174 5.173c.205.205.317.477.317.767 0 .289-.112.56-.317.766a1.112 1.112 0 0 1-1.532 0l-1.628-1.628-.001-.001-.449-.449c-.022-.022-.052-.03-.076-.05a3.052 3.052 0 0 0-.727-1.194c-.551-.55-1.298-.832-2.054-.861a3.072 3.072 0 0 0-.892-2.085 3.07 3.07 0 0 0-2.058-.891 3.061 3.061 0 0 0-.889-2.055c-.551-.551-1.298-.832-2.054-.862a3.067 3.067 0 0 0-.892-2.085 3.085 3.085 0 0 0-4.36 0l-3.141 3.141-2.104-2.104c-3.443-3.445-3.443-9.049 0-12.493A8.774 8.774 0 0 1 10.828 2c2.36 0 4.578.919 6.247 2.588l.907.908-5.3 4.958a1 1 0 0 0-.024 1.437 6.153 6.153 0 0 0 8.693 0l1.546-1.546L33.332 20.78c.205.205.317.476.317.765 0 .29-.112.562-.317.767m-8.839 8.839a1.085 1.085 0 0 1-1.532 0l-.921-.921.986-.986c.19-.19.338-.403.468-.624l.999.999a1.085 1.085 0 0 1 0 1.532m-7.681-.054a1.078 1.078 0 0 1-.317-.766c0-.29.113-.561.317-.766l3.268-3.268c.211-.211.488-.316.766-.316a1.085 1.085 0 0 1 .766 1.849l-3.267 3.267a1.086 1.086 0 0 1-1.533 0m-3.263-3.712c0-.29.113-.561.317-.766l3.267-3.268a1.08 1.08 0 0 1 1.532 0c.422.423.422 1.11 0 1.532l-3.267 3.268a1.085 1.085 0 0 1-1.849-.766m-2.946-2.947c0-.289.112-.561.317-.766l3.267-3.267a1.081 1.081 0 0 1 1.532 0c.422.423.422 1.11 0 1.532l-3.267 3.268a1.087 1.087 0 0 1-1.532 0 1.076 1.076 0 0 1-.317-.767m-2.947-2.945c0-.29.113-.562.318-.767l3.267-3.268c.204-.204.476-.317.766-.317a1.085 1.085 0 0 1 .766 1.85l-3.267 3.267a1.085 1.085 0 0 1-1.85-.765M28.012 2c2.36 0 4.578.919 6.247 2.588 3.443 3.444 3.443 9.048 0 12.493l-.899.898-6.316-6.315.032.002a6.89 6.89 0 0 0 4.89-2.023.999.999 0 1 0-1.414-1.414 4.92 4.92 0 0 1-6.898.045l-.05-.05a.999.999 0 0 0-1.414 0l-.002.002-.003.003-2.248 2.248a4.154 4.154 0 0 1-5.038.641l5.228-4.891 1.639-1.639A8.775 8.775 0 0 1 28.012 2m7.661 1.174A10.76 10.76 0 0 0 28.012 0a10.76 10.76 0 0 0-7.66 3.174l-.932.932-.931-.932A10.76 10.76 0 0 0 10.828 0a10.76 10.76 0 0 0-7.66 3.174c-4.224 4.224-4.224 11.096 0 15.321l2.181 2.18a.981.981 0 0 0 .365.227 3.059 3.059 0 0 0 .846 2.77 3.06 3.06 0 0 0 2.055.89c.03.776.338 1.504.891 2.057a3.064 3.064 0 0 0 2.055.889c.031.777.338 1.504.891 2.057a3.071 3.071 0 0 0 2.055.89 3.06 3.06 0 0 0 .891 2.056 3.075 3.075 0 0 0 2.18.902c.79 0 1.58-.301 2.181-.902l.867-.867.921.921c.601.601 1.39.901 2.18.901a3.06 3.06 0 0 0 3.07-2.958 3.057 3.057 0 0 0 2.056-.889 3.053 3.053 0 0 0 .891-2.057 3.065 3.065 0 0 0 2.056-.89c.569-.569.86-1.308.889-2.056a3.07 3.07 0 0 0 2.057-.89 3.06 3.06 0 0 0 .903-2.181 3.06 3.06 0 0 0-.878-2.149l.902-.901c4.223-4.225 4.223-11.097 0-15.321" fill="#7F8398" fill-rule="evenodd"/></g></svg>