<svg xmlns="http://www.w3.org/2000/svg" xmlns:xlink="http://www.w3.org/1999/xlink" width="533" height="186" viewBox="0 0 533 186">
    <defs>
        <path id="a" d="M532.435 137.085V.334H0v136.75h532.435z"/>
        <path id="c" d="M0 185.48h532.435V.001H0z"/>
    </defs>
    <g fill="none" fill-rule="evenodd">
        <g transform="translate(0 48.392)">
            <mask id="b" fill="#fff">
                <use xlink:href="#a"/>
            </mask>
            <path fill="#FFF" d="M468.82 134.72v-39.8h7.941V73.212h2.851v-2.838h17.1v2.838h2.86v28.903h7.477V43.753h22.815v90.967H468.82zm-31.005-29.754h16.92v16.531h2.283v-41.11h17.46v12.264h-7.941v42.069h-28.722v-29.754zm-24.95 29.754V73.412H435.532v61.308h-22.667zm-13.003 0V82.609h3.789v26.852h2.282V91.846h4.65v42.874h-10.721zm-48.433 0h11.405v-40H351.43v40zm-29.864 0V45.107h27.581v89.613h-27.58zm-7.985 0h5.703V77.01h-5.703v57.71zm-108.32 0l-4.93-19.044h62.63v19.044h-57.7zM88.645 115.676h65.514l-5.238 19.044H88.645v-19.044zM64.301 134.72V78.44h22.062v56.28H64.3zm-9.668 0h7.385V93.347h-7.385v41.373zm-18.758 0H19.403V42.47h32.948v92.25H35.874zm-33.592 0h14.838V98.4H2.283v36.32zM23.176 40.2h25.406v-6.434H23.176v6.434zm45.842 35.97H81.65v-3.926H69.02v3.926zm6.316-7.613c2.427 0 4.225.66 5.158 1.417H70.176c.929-.756 2.727-1.417 5.158-1.417zm96.93-61.798v4.746l-.052-.048-83.567 89.024v-11.61l83.62-82.112zm2.283 2.21h6.48V4.355h-6.48V8.97zm88.413 76.18v11.299l-79.65-84.855V6.935l79.65 78.214zm-10.58 28.256l-69.07-85.568v-4.801l79.546 90.37h-10.477zm-15.038 0L183.31 36.69v-5.223l66.142 81.94h-12.11zm-15.054 0L183.31 46.472v-5.829l51.248 72.763h-12.27zm-15.895 0l-20.72-54.364-1.85-7.163 35.826 61.527h-13.256zm-15.555-34.408l13.112 34.408h-4.209l-8.903-34.408zm-4.132 36.678h11.269l4.926 19.044h-12.675l-3.52-19.044zm-16.588 0h14.269l3.52 19.044h-21.626l3.837-19.044zm13.848-2.27h-13.392l6.985-34.66 6.407 34.66zM174.547 50.2V22.125h6.48v28.062l2.419 9.357-.016.008.064.175 13.892 53.68h-11.101l-8.63-46.688-13.7 68h-12.667l23.26-84.52zM163.47 81.845l-8.686 31.561h-3.34l12.026-31.561zm8.374-30.432l-2.03 7.378L149 113.406h-13.256l36.099-61.993zm.42-11.025v5.778l-39.154 67.24h-12.274l51.428-73.018zm0-9.145v5.192l-54.212 76.971h-12.11l66.322-82.163zm0-8.41v4.786l-69.25 85.787H92.538l79.726-90.572zm2.283-2.978h6.48V11.24h-6.48v8.616zm88.413 90.223l-79.65-90.485v-4.67l79.65 84.85v10.305zM88.645 103.81l83.62-89.08v4.658l-82.763 94.017h-.857v-9.595zM311.297 2.603V134.72h-46.054V2.603h46.054zm14.253 40.234h18.778v-5.542H325.55v5.542zm9.391-13.645l4.934 5.833h-9.872l4.938-5.833zm31.33 28.285h7.873v77.243h-9.031V57.477h1.157zm2.282-6.836H394.143v4.567h-25.59V50.64zm4.706-2.27h16.179v-4.566h-16.18v4.566zm8.09-11.407a6.096 6.096 0 0 1 5.902 4.571h-11.806a6.096 6.096 0 0 1 5.903-4.57zm-4.923 97.756h9.844V57.477h-9.844v77.243zm21.153-77.243v77.243h-9.026V57.477h9.026zm19.912 13.669h13.416V55.578H417.49v15.568zm6.708-27.831l3.844 9.99h-7.689l3.845-9.99zm108.236 91.405h-.288V41.483h-27.38v58.362h-2.912V70.943h-2.86v-2.839h-21.661v2.839h-2.856v7.175h-19.743v24.578h-16.92V71.142h-4.625V53.305h-2.704L425.34 39.93V28.308h-2.282V39.93l-5.147 13.375h-2.703v17.837h-4.625v18.435h-4.65v-9.238h-6.071V55.208h-3.436V48.37h-4.706v-6.836h-2.134a8.374 8.374 0 0 0-8.238-6.84c-4.109 0-7.529 2.954-8.238 6.84h-2.134v6.836h-4.706v6.837h-3.436V92.45H351.43V42.837h-4.818v-7.812h-3.752l-7.918-9.357-7.921 9.357h-3.753v7.812h-3.984v31.904h-5.703V.334l-50.62.004V81.96L183.31 3.746v-1.66h-11.046v1.52l-.02-.02-83.599 82.097V76.17h-4.717v-3.926h2.815v-2.27h-3.468c-.74-1.95-3.368-3.376-6.8-3.639V51.8h-2.283v14.536c-3.436.263-6.063 1.688-6.8 3.64H63.92v2.269h2.815v3.926h-4.713v14.91h-7.389V40.206h-3.772v-8.704H37.016V20.684h-2.278V31.5H20.893v8.704h-3.772V96.13H0v40.86H262.96v.02h50.62v-.02H362.834v.02h37.028v-.02h130.002v.095l.096-.096h2.475v-2.27z" mask="url(#b)"/>
        </g>
        <mask id="d" fill="#fff">
            <use xlink:href="#c"/>
        </mask>
        <path fill="#FFF" d="M23.08 182.748h2.282v-86.69h-2.283zM28.906 182.748h2.283v-86.69h-2.283zM34.737 182.748h2.283v-86.69h-2.283zM40.564 182.748h2.283v-86.69h-2.283zM46.39 182.748h2.284v-86.69H46.39zM67.876 134.702h14.91v-2.27h-14.91zM67.876 141.734h14.91v-2.27h-14.91zM67.876 148.77h14.91v-2.27h-14.91zM67.876 155.805h14.91v-2.27h-14.91zM67.876 162.84h14.91v-2.27h-14.91zM67.876 169.872h14.91v-2.27h-14.91zM67.876 176.907h14.91v-2.27h-14.91zM309.388 42.198l-42.054.004v2.265h42.054zM309.388 34.435h-20.484V6.902h-2.283v27.533h-19.287v2.27h42.054zM270.032 61.15h7.617v-2.269h-7.617zM283.952 61.15h7.617v-2.269h-7.617zM297.873 61.15h7.617v-2.269h-7.617zM270.032 71.395h7.617v-2.27h-7.617zM283.952 71.395h7.617v-2.27h-7.617zM297.873 71.395h7.617v-2.27h-7.617zM270.032 81.64h7.617v-2.27h-7.617zM283.952 81.64h7.617v-2.27h-7.617zM297.873 81.64h7.617v-2.27h-7.617zM270.032 91.884h7.617v-2.269h-7.617zM283.952 91.884h7.617v-2.269h-7.617zM297.873 91.884h7.617v-2.269h-7.617zM270.032 102.133h7.617v-2.27h-7.617zM283.952 102.133h7.617v-2.27h-7.617zM297.873 102.133h7.617v-2.27h-7.617zM270.032 112.378h7.617v-2.27h-7.617zM283.952 112.378h7.617v-2.27h-7.617zM297.873 112.374h7.617v-2.27h-7.617zM270.032 122.622h7.617v-2.27h-7.617zM283.952 122.622h7.617v-2.27h-7.617zM297.873 122.622h7.617v-2.27h-7.617zM270.032 132.867h7.617v-2.27h-7.617zM283.952 132.867h7.617v-2.27h-7.617zM297.873 132.867h7.617v-2.27h-7.617zM270.032 143.115h7.617v-2.27h-7.617zM283.952 143.115h7.617v-2.27h-7.617zM297.873 143.111h7.617v-2.27h-7.617zM270.032 153.36h7.617v-2.27h-7.617zM283.952 153.36h7.617v-2.27h-7.617zM297.873 153.36h7.617v-2.27h-7.617zM270.032 163.605h7.617v-2.27h-7.617zM283.952 163.605h7.617v-2.27h-7.617zM297.873 163.605h7.617v-2.27h-7.617zM270.032 173.85h7.617v-2.27h-7.617zM283.952 173.85h7.617v-2.27h-7.617zM297.873 173.85h7.617v-2.27h-7.617zM326.355 177.683h2.282V97.678h-2.282zM334.216 177.683h2.283V97.678h-2.283zM342.073 177.683h2.283V97.678h-2.283zM424.199 113.962a3.057 3.057 0 0 1-3.064-3.046 3.057 3.057 0 0 1 3.064-3.046 3.057 3.057 0 0 1 3.063 3.046 3.057 3.057 0 0 1-3.063 3.046m0-8.362c-2.948 0-5.346 2.385-5.346 5.316 0 2.93 2.398 5.315 5.346 5.315 2.947 0 5.346-2.385 5.346-5.315 0-2.93-2.399-5.316-5.346-5.316M417.17 135.475h2.283v-8.919h-2.283zM423.057 135.475h2.283v-8.919h-2.283zM428.944 135.475h2.283v-8.919h-2.283zM417.803 143.856h12.791v-2.27h-12.791zM417.803 152.496h12.791v-2.27h-12.791zM417.803 161.136h12.791v-2.27h-12.791zM417.803 169.776h12.791v-2.27h-12.791zM82.732 52.17h28.65c2.246 0 4.08-1.995 4.088-4.443.004-2.457-1.822-4.46-4.076-4.468h-.012c-.245 0-.493.024-.741.076l-1.082.215-.256-1.063c-.773-3.197-3.448-5.427-6.504-5.427-.58 0-1.157.08-1.722.239l-.857.247-.444-.769c-1.722-2.946-4.67-4.706-7.894-4.706-4.076 0-7.645 2.815-8.878 7.008l-.212.716-.745.092c-2.868.354-5.03 2.986-5.03 6.12 0 3.396 2.547 6.16 5.675 6.163h.04zm9.15 2.274H82.7c-4.394 0-7.97-3.783-7.97-8.437 0-4.01 2.66-7.43 6.3-8.25a12.231 12.231 0 0 1 3.896-5.499c2.019-1.608 4.425-2.46 6.956-2.46 2.019 0 4.005.557 5.747 1.616 1.442.876 2.7 2.075 3.669 3.504a8.633 8.633 0 0 1 1.501-.135c3.797 0 7.14 2.508 8.442 6.203h.16c3.517.012 6.364 3.038 6.356 6.749-.012 3.699-2.871 6.709-6.375 6.709H91.882zM375.925 22.372h28.65c2.247 0 4.081-1.995 4.09-4.444.003-2.456-1.823-4.46-4.078-4.467h-.012c-.244 0-.492.024-.74.076l-1.082.215-.256-1.064c-.773-3.197-3.448-5.426-6.504-5.426-.58 0-1.157.08-1.722.238l-.857.247-.445-.768c-1.722-2.946-4.67-4.706-7.893-4.706-4.077 0-7.645 2.815-8.878 7.007l-.213.717-.745.092c-2.867.354-5.03 2.986-5.03 6.12 0 3.395 2.548 6.159 5.675 6.163h.04zm9.151 2.273h-9.183c-4.393 0-7.97-3.782-7.97-8.437 0-4.01 2.66-7.43 6.3-8.25a12.231 12.231 0 0 1 3.897-5.498C380.138.85 382.545 0 385.076 0c2.019 0 4.005.56 5.747 1.616 1.442.876 2.7 2.074 3.668 3.504a8.633 8.633 0 0 1 1.502-.136c3.797 0 7.14 2.509 8.442 6.203h.16c3.516.012 6.364 3.038 6.356 6.75-.012 3.698-2.872 6.708-6.376 6.708H385.076zM473.623 61.746a8.58 8.58 0 0 1-.704-.032l-12.027-1.11.22-2.35 12.027 1.107c1.11.103 1.962-.147 2.339-.685.38-.533.324-1.417-.149-2.417l-.236-.505c-1.19-2.517-4.553-4.643-7.353-4.643h-23.924l-3.7-6.661h-3.36l2.971 8.823c.825 2.202 2.239 3.213 4.874 3.456l3.052.283-.22 2.353-3.048-.283c-3.548-.326-5.739-1.923-6.896-5.025l-4.033-11.968h8.061l3.7 6.661h22.523c3.74 0 7.914 2.636 9.504 6l.236.506c.861 1.816.837 3.512-.056 4.782-.789 1.115-2.123 1.708-3.8 1.708" mask="url(#d)"/>
        <path fill="#FFF" d="M468.99 55.915h6.955l-1.602-3.113h-5.354zM444.099 65.661h3.244l15.558-8.64.897-.561c-.593-.466-2.831-1.203-6.411-1.203-3.697 0-5.976.792-6.472 1.254l-.064.088-6.752 9.062zm3.864 2.361h-8.582l9.548-12.82c1.233-1.7 5.326-2.306 8.458-2.306 4.088 0 8.862.916 8.862 3.488 0 .768-.444 1.573-1.133 2.042l-1.005.63-16.148 8.966zM390.623 54.51h41.18v-2.362h-41.18zM372.41 54.51h8.71v-2.362h-8.71zM419.925 59.236h8.71v-2.362h-8.71zM135.791 22.431h-1.453c0-1.82-1.486-3.3-3.316-3.3a3.31 3.31 0 0 0-2.928 1.748l-1.281-.681a4.76 4.76 0 0 1 4.209-2.509c2.63 0 4.77 2.127 4.77 4.742" mask="url(#d)"/>
        <path fill="#FFF" d="M135.791 22.431h-1.453c0-2.615 2.142-4.742 4.773-4.742a4.77 4.77 0 0 1 4.21 2.509l-1.282.68a3.319 3.319 0 0 0-2.928-1.747c-1.83 0-3.32 1.48-3.32 3.3M154.175 32.17h-1.454c0-1.82-1.485-3.3-3.316-3.3a3.31 3.31 0 0 0-2.927 1.747l-1.282-.68a4.765 4.765 0 0 1 4.21-2.51c2.63 0 4.769 2.127 4.769 4.743" mask="url(#d)"/>
        <path fill="#FFF" d="M154.175 32.17h-1.454c0-2.616 2.143-4.742 4.774-4.742a4.77 4.77 0 0 1 4.209 2.508l-1.282.681a3.319 3.319 0 0 0-2.927-1.748c-1.83 0-3.32 1.481-3.32 3.301" mask="url(#d)"/>
    </g>
</svg>
