<svg baseProfile="tiny" xmlns="http://www.w3.org/2000/svg" preserveAspectRatio="xMinYMin meet" xmlns:xlink="http://www.w3.org/1999/xlink" viewBox="0 0 420 60" width="420" height="60"><g fill="#04003F" fill-rule="evenodd"><path d="M42.466.695H4.914A4.702 4.702 0 0 0 .218 5.39v34.038a4.702 4.702 0 0 0 4.696 4.696h37.552a4.7 4.7 0 0 0 4.696-4.696V5.39A4.7 4.7 0 0 0 42.466.695zm2.348 38.734a2.35 2.35 0 0 1-2.348 2.348H4.914a2.352 2.352 0 0 1-2.348-2.348V5.39a2.352 2.352 0 0 1 2.348-2.348h37.552a2.35 2.35 0 0 1 2.348 2.348v34.038z"/><path d="M37.78 12.4a3.557 3.557 0 0 0-3.551 3.554c0 .588.156 1.134.412 1.624l-3.114 3.112a3.55 3.55 0 0 0-1.384-.282c-.548 0-1.06.136-1.524.358l-3.05-3.05a3.503 3.503 0 0 0 .488-1.762 3.558 3.558 0 0 0-3.554-3.554 3.557 3.557 0 0 0-3.552 3.554c0 .596.162 1.15.424 1.646l-3.104 3.102a3.545 3.545 0 0 0-1.406-.294 3.557 3.557 0 0 0-3.552 3.554 3.557 3.557 0 0 0 3.552 3.552 3.557 3.557 0 0 0 3.554-3.552c0-.602-.164-1.16-.43-1.656l3.098-3.1c.434.19.912.3 1.416.3.456 0 .886-.094 1.286-.25l3.166 3.166a3.528 3.528 0 0 0-.366 1.54 3.557 3.557 0 0 0 3.554 3.552 3.557 3.557 0 0 0 3.552-3.552c0-.61-.168-1.176-.44-1.678l3.088-3.088c.442.196.926.31 1.438.31a3.557 3.557 0 0 0 3.554-3.552A3.558 3.558 0 0 0 37.78 12.4M14.865 25.166a1.205 1.205 0 0 1 0-2.408c.664 0 1.206.54 1.206 1.204 0 .664-.542 1.204-1.206 1.204m6.434-9.212a1.206 1.206 0 1 1 2.41 0 1.206 1.206 0 0 1-2.41 0m8.844 9.212c-.664 0-1.206-.54-1.206-1.204a1.205 1.205 0 1 1 1.206 1.204m7.638-8.008a1.205 1.205 0 1 1 .002-2.41 1.205 1.205 0 0 1-.002 2.41"/><path d="M40.129 31.276H9.601V12.49a1.173 1.173 0 1 0-2.348 0v19.96c0 .65.526 1.174 1.174 1.174h4.698v1.174a1.173 1.173 0 1 0 2.348 0v-1.174h5.87v1.174a1.173 1.173 0 1 0 2.348 0v-1.174h5.87v1.174c0 .65.526 1.174 1.176 1.174.648 0 1.174-.524 1.174-1.174v-1.174h5.87v1.174a1.173 1.173 0 1 0 2.348 0v-1.174a1.173 1.173 0 1 0 0-2.348"/></g><g transform="translate(55)"><g fill="#04003F" fill-rule="evenodd"><path d="M43.027.022H5.467A4.7 4.7 0 0 0 .771 4.718v24.638a4.7 4.7 0 0 0 4.696 4.696h12.906v4.724H14.85a1.174 1.174 0 0 0 0 2.348h18.786a1.173 1.173 0 1 0 0-2.348h-3.522v-4.724h12.914a4.7 4.7 0 0 0 4.696-4.696V4.718A4.7 4.7 0 0 0 43.027.022zM5.467 2.37h37.56a2.352 2.352 0 0 1 2.348 2.348v18.758H3.12V4.718A2.35 2.35 0 0 1 5.467 2.37zm15.254 36.406h7.044v-4.724h-7.044v4.724zm22.306-7.072H29.031c-.032-.002-.06-.018-.092-.018s-.06.016-.09.018h-9.212c-.032-.002-.058-.018-.09-.018-.032 0-.06.016-.092.018H5.467a2.35 2.35 0 0 1-2.348-2.348v-3.532h42.256v3.532a2.352 2.352 0 0 1-2.348 2.348z"/><path d="M24.186 22.707l8.968-8.968a5.282 5.282 0 0 0 0-7.46 5.282 5.282 0 0 0-7.46 0l-1.508 1.51-1.508-1.51a5.282 5.282 0 0 0-7.46 0 5.282 5.282 0 0 0 0 7.46l8.968 8.968zM16.878 7.939a2.93 2.93 0 0 1 2.07-.854c.75 0 1.498.286 2.07.854l3.168 3.17 3.168-3.17a2.937 2.937 0 0 1 4.14 0c1.14 1.142 1.14 3 0 4.14l-7.308 7.308-7.308-7.308a2.933 2.933 0 0 1 0-4.14zm7.365 19.457a1.382 1.382 0 1 0 0 2.764 1.382 1.382 0 0 0 0-2.764"/></g></g><g transform="translate(110)"><g fill="#04003F" fill-rule="evenodd"><path d="M35.008 35.428H5.656a2.352 2.352 0 0 1-2.35-2.348V11.946h37.572v14.09a1.174 1.174 0 0 0 2.348 0V4.9A4.7 4.7 0 0 0 38.53.204H5.656A4.702 4.702 0 0 0 .958 4.9v28.18a4.702 4.702 0 0 0 4.698 4.696h29.352a1.173 1.173 0 1 0 0-2.348M5.656 2.552H38.53A2.35 2.35 0 0 1 40.878 4.9v4.698H3.306V4.9a2.352 2.352 0 0 1 2.35-2.348"/><path d="M6.83 7.246a1.17 1.17 0 1 0-.001-2.34 1.17 1.17 0 0 0 0 2.34m3.522 0a1.17 1.17 0 1 0 0-2.34 1.17 1.17 0 0 0 0 2.34m3.523 0a1.17 1.17 0 1 0 0-2.34 1.17 1.17 0 0 0 0 2.34m1.942 9.863a1.175 1.175 0 0 0-1.66 0L9.52 21.745a1.173 1.173 0 0 0 0 1.66l4.636 4.634c.23.23.53.344.83.344a1.175 1.175 0 0 0 .83-2.004l-3.806-3.804 3.806-3.806a1.175 1.175 0 0 0 0-1.66M27.195 28.04c.23.23.53.343.83.343.3 0 .602-.114.83-.344l4.634-4.634a1.17 1.17 0 0 0 0-1.66l-4.634-4.636a1.175 1.175 0 0 0-1.66 1.66l3.804 3.806-3.804 3.804a1.175 1.175 0 0 0 0 1.66m-3.838-12.961l-5.87 14.09a1.17 1.17 0 0 0 .632 1.534 1.171 1.171 0 0 0 1.534-.632l5.87-14.088a1.174 1.174 0 1 0-2.166-.904M47.579 38.12l-2.692-2.692 1.518-1.518a1.173 1.173 0 0 0-.368-1.91l-8.218-3.522a1.175 1.175 0 0 0-1.542 1.542l3.522 8.218a1.181 1.181 0 0 0 1.08.712c.308 0 .606-.122.83-.344l1.518-1.518 2.692 2.692c.23.23.53.344.83.344a1.175 1.175 0 0 0 .83-2.004"/></g></g><g transform="translate(165)"><path fill="#04003F" fill-rule="evenodd" d="M38.638 29.569a3.414 3.414 0 0 0-3.892.346l-5.188-2.996v-8.124l5.2-3.002c.618.514 1.384.81 2.178.81.578 0 1.166-.146 1.702-.456a3.397 3.397 0 0 0 1.594-2.076 3.404 3.404 0 0 0-.342-2.596 3.406 3.406 0 0 0-2.076-1.594 3.407 3.407 0 0 0-2.596.342 3.418 3.418 0 0 0-1.646 3.544l-5.244 3.028-6.978-4.028v-5.96a3.51 3.51 0 0 0 2.336-3.296A3.514 3.514 0 0 0 20.174 0a3.513 3.513 0 0 0-3.51 3.51c0 1.522.98 2.81 2.336 3.296v5.96l-6.978 4.028-5.244-3.028a3.416 3.416 0 0 0-1.648-3.544 3.4 3.4 0 0 0-2.594-.342A3.4 3.4 0 0 0 .46 11.475a3.395 3.395 0 0 0-.342 2.596 3.397 3.397 0 0 0 1.594 2.076c.536.31 1.124.456 1.702.456.794 0 1.558-.298 2.178-.81l5.2 3.002v8.124l-5.188 2.996a3.41 3.41 0 0 0-3.892-.346H1.71a3.401 3.401 0 0 0-1.592 2.076A3.395 3.395 0 0 0 .46 34.24a3.39 3.39 0 0 0 2.076 1.592 3.4 3.4 0 0 0 2.594-.34 3.416 3.416 0 0 0 1.648-3.544l5.13-2.962L19 33.08v5.924a3.416 3.416 0 0 0-2.244 3.2 3.423 3.423 0 0 0 3.418 3.418 3.423 3.423 0 0 0 3.42-3.418 3.416 3.416 0 0 0-2.244-3.2V33.08l7.09-4.094 5.132 2.962a3.418 3.418 0 0 0 1.646 3.544c.528.304 1.112.46 1.706.46.296 0 .596-.04.89-.12a3.396 3.396 0 0 0 2.076-1.592c.456-.79.578-1.712.342-2.596a3.397 3.397 0 0 0-1.594-2.076zm-2.244-17.312a1.075 1.075 0 0 1 .812-.108 1.076 1.076 0 0 1 .758 1.314 1.071 1.071 0 1 1-1.57-1.206zm-16.22-9.908c.642 0 1.164.522 1.164 1.162 0 .642-.522 1.164-1.164 1.164-.64 0-1.162-.522-1.162-1.164 0-.64.522-1.162 1.162-1.162zm0 12.45l5.806 3.352-5.806 3.35-5.804-3.35 5.804-3.352zM4.348 13.72a1.072 1.072 0 1 1-1.856-1.073 1.072 1.072 0 0 1 1.856 1.073zm-.392 19.738a1.086 1.086 0 0 1-.812.108 1.072 1.072 0 1 1 .812-.108zm9.184-6.474V20.15L19 23.537v6.834l-5.86-3.386zm7.034 16.29a1.071 1.071 0 1 1 .003-2.143 1.071 1.071 0 0 1-.003 2.143zM21.35 30.37v-6.834l5.86-3.386v6.834l-5.86 3.386zm16.506 2.696a1.076 1.076 0 0 1-.65.5 1.072 1.072 0 1 1 .758-1.314c.074.276.036.566-.108.814z"/></g><g transform="translate(215)"><path fill="#04003F" fill-rule="evenodd" d="M43.987 5.195a1.169 1.169 0 0 0-.892-.81l-2.77-.556-.554-2.766a1.17 1.17 0 0 0-.812-.894 1.165 1.165 0 0 0-1.17.294l-4.11 4.11c-.22.22-.344.518-.344.83v3.752l-1.614 1.616c-7.366-6.502-18.642-6.254-25.682.79A18.65 18.65 0 0 0 .537 24.839c0 4.622 1.676 8.976 4.712 12.408L.875 41.621a1.175 1.175 0 0 0 1.66 1.66l4.376-4.374a18.714 18.714 0 0 0 24.812 0l4.376 4.374c.228.23.53.344.83.344a1.175 1.175 0 0 0 .83-2.004l-4.368-4.368c5.432-6.146 6.286-15.09 1.976-22.168a1.17 1.17 0 0 0-1.612-.392 1.171 1.171 0 0 0-.392 1.612 16.387 16.387 0 0 1-2.428 20.154c-6.406 6.408-16.83 6.404-23.236 0a16.325 16.325 0 0 1-4.814-11.62c0-4.388 1.71-8.514 4.814-11.618 6.124-6.126 15.914-6.38 22.362-.79L28.4 14.093a13.967 13.967 0 0 0-9.082-3.332 13.976 13.976 0 0 0-9.954 4.124 13.98 13.98 0 0 0-4.124 9.954c0 3.762 1.464 7.296 4.124 9.956a13.983 13.983 0 0 0 9.954 4.122 13.99 13.99 0 0 0 9.954-4.122 14.09 14.09 0 0 0 2.71-16.112 1.173 1.173 0 1 0-2.112 1.026 11.74 11.74 0 0 1-2.258 13.426c-4.574 4.57-12.014 4.572-16.588 0-4.574-4.574-4.574-12.016 0-16.59 4.292-4.29 11.11-4.554 15.714-.79l-1.688 1.686c-3.67-2.848-8.986-2.594-12.356.774a9.314 9.314 0 0 0-2.744 6.624c0 2.502.976 4.854 2.744 6.624a9.34 9.34 0 0 0 6.624 2.738 9.335 9.335 0 0 0 6.622-2.738 9.416 9.416 0 0 0 2.454-8.942 1.174 1.174 0 1 0-2.276.58 7.052 7.052 0 0 1-1.838 6.7c-2.736 2.738-7.188 2.736-9.926 0a6.973 6.973 0 0 1-2.056-4.962c0-1.874.732-3.638 2.056-4.962 2.452-2.452 6.272-2.69 9.01-.748l-1.708 1.708a4.655 4.655 0 0 1 1.662 1.66l2.612-2.614c.004-.004.008-.004.01-.006.004-.004.004-.008.008-.01l3.312-3.314c.004-.004.008-.004.012-.008s.004-.008.008-.012l3.302-3.304c.004-.002.01-.004.014-.008s.006-.01.008-.012l2.388-2.388h3.762c.312 0 .61-.124.83-.344l4.11-4.112c.306-.306.42-.756.294-1.17zm-5.72 3.276h-2.584V5.889L37.9 3.673l.278 1.384c.094.464.456.828.92.922l1.386.276-2.216 2.216z"/></g><g transform="translate(265)"><g fill="#04003F" fill-rule="evenodd"><path d="M34.145 21.112c0-7.118-5.79-12.906-12.906-12.906-7.116 0-12.906 5.788-12.906 12.906a12.816 12.816 0 0 0 3.836 9.178c1.678 1.704 2.808 4.028 3.102 6.39.056.45.084.914.084 1.378v6.602a5.896 5.896 0 0 0 5.888 5.888 5.894 5.894 0 0 0 5.888-5.888l.002-6.602c0-.042-.002-.082-.006-.124.034-2.83 1.24-5.698 3.238-7.698a12.811 12.811 0 0 0 3.78-9.124zm-9.36 17.652v1.188h-7.082v-1.188h7.082zm-7.082 4.722V42.3h7.08v1.186h-7.08zm3.54 4.714c-1.538 0-2.836-.992-3.324-2.366h6.648a3.532 3.532 0 0 1-3.324 2.366zm3.65-11.784h-7.29c-.002-.008-.002-.016-.002-.026-.36-2.894-1.754-5.742-3.824-7.814l-.052-.048a10.488 10.488 0 0 1-3.044-7.416c0-5.822 4.736-10.558 10.558-10.558s10.558 4.736 10.558 10.558c0 2.82-1.098 5.47-3.092 7.464-2.106 2.106-3.442 4.9-3.812 7.84z"/><path d="M23.558 21.185a2.318 2.318 0 1 0-4.637 0 2.318 2.318 0 0 0 4.637 0m-2.318-7.016a7.12 7.12 0 0 0-5.072 2.102 1.175 1.175 0 0 0 1.66 1.66 4.794 4.794 0 0 1 3.412-1.414c1.288 0 2.5.502 3.412 1.414.23.23.53.344.83.344.3 0 .602-.114.83-.344a1.17 1.17 0 0 0 0-1.66 7.12 7.12 0 0 0-5.072-2.102m3.412 10.275a4.794 4.794 0 0 1-3.412 1.414c-1.29 0-2.5-.502-3.412-1.414a1.175 1.175 0 0 0-1.66 1.66 7.12 7.12 0 0 0 5.072 2.102 7.12 7.12 0 0 0 5.072-2.102 1.175 1.175 0 0 0-1.66-1.66M4.803 20.01H1.28a1.174 1.174 0 0 0 0 2.348h3.522a1.174 1.174 0 0 0 0-2.348m3.867 12.086l-2.348 2.348a1.175 1.175 0 0 0 1.66 1.66l2.348-2.348a1.175 1.175 0 0 0-1.66-1.66m25.143 0a1.175 1.175 0 0 0-1.66 1.66l2.348 2.348c.23.23.53.344.83.344a1.175 1.175 0 0 0 .83-2.004l-2.348-2.348zM41.2 20.01h-3.522a1.174 1.174 0 0 0 0 2.348H41.2a1.174 1.174 0 0 0 0-2.348m-8.219-9.392c.3 0 .6-.114.83-.344l2.348-2.348a1.17 1.17 0 0 0 0-1.66 1.17 1.17 0 0 0-1.66 0l-2.348 2.348a1.175 1.175 0 0 0 .83 2.004M21.24 5.921c.648 0 1.174-.526 1.174-1.174V1.225a1.173 1.173 0 1 0-2.348 0v3.522c0 .648.526 1.174 1.174 1.174M8.669 10.273c.23.23.53.344.83.344a1.175 1.175 0 0 0 .83-2.004L7.957 6.241a1.17 1.17 0 0 0-1.66 0 1.17 1.17 0 0 0 0 1.66l2.372 2.372z"/></g></g><g transform="translate(315)"><defs><path id="a" d="M0 .076h37.93v38.765H.001z"/><path id="c" d="M.232 21.978h21.88V.258H.232v21.72z"/></defs><g fill="none" fill-rule="evenodd"><g transform="translate(0 .154)"><mask id="b" fill="#fff"><use xlink:href="#a"/></mask><path fill="#04003F" d="M4.307 5.349h5.155V7.43a1.05 1.05 0 0 0 1.054 1.047 1.05 1.05 0 0 0 1.055-1.047V5.35h14.721v2.08a1.05 1.05 0 0 0 1.055 1.047A1.05 1.05 0 0 0 28.4 7.43V5.35h5.222c1.212 0 2.197.98 2.197 2.182v4.142H2.11V7.531c0-1.203.985-2.182 2.197-2.182m16.548 31.4H2.11V13.765h33.71v1.477a1.05 1.05 0 0 0 1.055 1.047 1.05 1.05 0 0 0 1.054-1.047V7.531c0-2.358-1.932-4.275-4.306-4.275h-5.222V1.123A1.05 1.05 0 0 0 27.347.076a1.05 1.05 0 0 0-1.055 1.047v2.133H11.571V1.227A1.05 1.05 0 0 0 10.516.181a1.05 1.05 0 0 0-1.054 1.046v2.029H4.307C1.932 3.256 0 5.173 0 7.53v30.264a1.05 1.05 0 0 0 1.054 1.046h19.8a1.05 1.05 0 0 0 1.055-1.046 1.05 1.05 0 0 0-1.055-1.047" mask="url(#b)"/></g><path fill="#04003F" d="M31.204 31.051c-1.557 0-2.824-1.258-2.824-2.804 0-1.544 1.267-2.802 2.824-2.802s2.825 1.258 2.825 2.802c0 1.546-1.268 2.804-2.825 2.804m0-7.7c-2.72 0-4.933 2.196-4.933 4.896 0 2.7 2.213 4.897 4.933 4.897 2.72 0 4.933-2.196 4.933-4.897 0-2.7-2.213-4.895-4.933-4.895"/><g transform="translate(20.032 17.13)"><mask id="d" fill="#fff"><use xlink:href="#c"/></mask><path fill="#04003F" d="M20.004 12.456h-1.648c-.453 0-.856.287-1 .715a6.388 6.388 0 0 1-.35.833 1.04 1.04 0 0 0 .197 1.209l1.167 1.158-1.905 1.892-1.167-1.16a1.06 1.06 0 0 0-1.218-.195 6.517 6.517 0 0 1-.842.349 1.047 1.047 0 0 0-.719.992v1.637H9.825v-1.637c0-.45-.29-.85-.72-.992a6.48 6.48 0 0 1-.84-.349 1.057 1.057 0 0 0-1.218.196l-1.167 1.16-1.906-1.893 1.167-1.158c.322-.32.4-.807.197-1.21a6.42 6.42 0 0 1-.35-.832 1.053 1.053 0 0 0-1-.715H2.342V9.78H3.99c.453 0 .856-.288 1-.715.092-.276.21-.556.35-.832a1.04 1.04 0 0 0-.198-1.209l-1.167-1.16 1.906-1.89 1.167 1.158c.321.32.812.4 1.218.196.282-.14.563-.258.838-.348.43-.141.722-.542.722-.993V2.351h2.694v1.636c0 .451.291.85.722.993.276.091.558.208.839.348.406.203.896.123 1.218-.196l1.167-1.159 1.905 1.892-1.167 1.16c-.32.317-.4.804-.197 1.207.139.277.257.557.35.833.143.427.546.715 1 .715h1.648v2.676zm1.054-4.77h-1.541l1.09-1.081a1.04 1.04 0 0 0 0-1.48L17.21 1.753c-.395-.393-1.095-.393-1.49 0l-1.092 1.083V1.305A1.05 1.05 0 0 0 13.574.258H8.77a1.05 1.05 0 0 0-1.054 1.047v1.53l-1.09-1.082a1.062 1.062 0 0 0-1.492 0L1.738 5.125a1.04 1.04 0 0 0 0 1.48l1.09 1.082H1.287A1.05 1.05 0 0 0 .232 8.733v4.77a1.05 1.05 0 0 0 1.055 1.046h1.541l-1.09 1.082a1.04 1.04 0 0 0 0 1.48l3.396 3.372c.412.41 1.08.41 1.492 0l1.09-1.082v1.531A1.05 1.05 0 0 0 8.77 21.98h4.804a1.05 1.05 0 0 0 1.054-1.047v-1.531l1.091 1.082a1.058 1.058 0 0 0 1.491 0l3.396-3.372a1.04 1.04 0 0 0 0-1.48l-1.089-1.082h1.541a1.05 1.05 0 0 0 1.055-1.047v-4.77a1.05 1.05 0 0 0-1.055-1.046z" mask="url(#d)"/></g></g></g><g transform="translate(365)"><path fill="#04003F" fill-rule="evenodd" d="M41.884 3.728A12.628 12.628 0 0 0 32.89.002a12.628 12.628 0 0 0-8.994 3.726l-1.094 1.094-1.094-1.094A12.628 12.628 0 0 0 12.714.002 12.628 12.628 0 0 0 3.72 3.728c-4.96 4.96-4.96 13.028 0 17.988l2.56 2.56c.126.126.272.21.428.266a3.6 3.6 0 0 0 3.406 4.298 3.587 3.587 0 0 0 1.046 2.414 3.594 3.594 0 0 0 2.414 1.044 3.586 3.586 0 0 0 1.046 2.416 3.599 3.599 0 0 0 2.414 1.044 3.577 3.577 0 0 0 1.046 2.414 3.607 3.607 0 0 0 2.558 1.06c.928 0 1.856-.354 2.562-1.06l1.018-1.018 1.08 1.082a3.61 3.61 0 0 0 2.56 1.058 3.59 3.59 0 0 0 3.604-3.472 3.6 3.6 0 0 0 2.416-1.046 3.587 3.587 0 0 0 1.046-2.414 3.598 3.598 0 0 0 2.412-1.044 3.6 3.6 0 0 0 1.046-2.416 3.594 3.594 0 0 0 3.474-3.604c0-.95-.368-1.844-1.03-2.524l1.058-1.058c4.96-4.96 4.96-13.028 0-17.988M32.89 2.35c2.77 0 5.374 1.078 7.334 3.038 4.042 4.044 4.042 10.624 0 14.668l-1.056 1.054-7.416-7.414.038.002c2.08 0 4.16-.792 5.742-2.374a1.175 1.175 0 0 0-1.66-1.662c-2.23 2.23-5.844 2.242-8.1.054l-.058-.058a1.17 1.17 0 0 0-1.66 0c-.002 0-.002.002-.002.002l-.004.002-2.64 2.64a4.874 4.874 0 0 1-5.914.752l6.138-5.742 1.924-1.924A10.299 10.299 0 0 1 32.89 2.35M8.99 25.236c0-.34.132-.66.372-.9l3.836-3.836a1.267 1.267 0 0 1 1.798 0 1.272 1.272 0 0 1 0 1.798l-3.836 3.836a1.272 1.272 0 0 1-2.17-.898m3.458 3.458c0-.34.132-.658.374-.898l3.836-3.838c.248-.248.574-.37.898-.37.326 0 .652.122.9.37a1.275 1.275 0 0 1 0 1.8l-3.836 3.836a1.272 1.272 0 0 1-2.172-.9m3.46 3.46c0-.34.132-.658.372-.9l3.836-3.836c.24-.24.56-.372.9-.372a1.274 1.274 0 0 1 .9 2.17l-3.836 3.838a1.278 1.278 0 0 1-1.8 0 1.268 1.268 0 0 1-.372-.9m3.832 4.358a1.261 1.261 0 0 1-.372-.9c0-.338.132-.658.372-.898l3.836-3.836a1.269 1.269 0 0 1 1.798 0 1.272 1.272 0 0 1 0 1.798l-3.836 3.836a1.272 1.272 0 0 1-1.798 0m9.018.064a1.275 1.275 0 0 1-1.8 0l-1.08-1.082 1.158-1.158a3.55 3.55 0 0 0 .548-.732l1.174 1.172a1.275 1.275 0 0 1 0 1.8m10.378-10.378a1.275 1.275 0 0 1-1.8 0l-6.076-6.074a1.175 1.175 0 0 0-1.66 1.66l6.076 6.074c.24.24.372.56.372.9 0 .34-.132.658-.372.9a1.276 1.276 0 0 1-1.798 0l-6.076-6.076a1.175 1.175 0 0 0-1.66 1.66l6.076 6.076c.24.24.372.558.372.9 0 .338-.132.658-.372.898-.482.48-1.32.48-1.8 0l-1.912-1.91v-.002l-.528-.526c-.026-.026-.062-.036-.09-.06a3.594 3.594 0 0 0-.852-1.402c-.648-.646-1.526-.976-2.412-1.01a3.607 3.607 0 0 0-1.048-2.448 3.591 3.591 0 0 0-2.416-1.046 3.594 3.594 0 0 0-1.044-2.414c-.646-.646-1.524-.976-2.412-1.012a3.6 3.6 0 0 0-1.046-2.446 3.62 3.62 0 0 0-5.12 0L7.85 22.526l-2.47-2.47c-4.044-4.044-4.044-10.624 0-14.668a10.299 10.299 0 0 1 7.334-3.038c2.77 0 5.374 1.078 7.334 3.038l1.066 1.066-6.224 5.82a1.18 1.18 0 0 0-.372.838c-.006.318.118.626.344.85 2.812 2.814 7.392 2.814 10.206 0l1.816-1.814 12.252 12.25c.24.242.372.56.372.9 0 .34-.132.66-.372.9"/></g></svg>