<?xml version="1.0" encoding="utf-8"?>
<!-- Generator: Adobe Illustrator 16.0.2, SVG Export Plug-In . SVG Version: 6.00 Build 0)  -->
<!DOCTYPE svg PUBLIC "-//W3C//DTD SVG 1.1//EN" "http://www.w3.org/Graphics/SVG/1.1/DTD/svg11.dtd">
<svg version="1.1" id="Layer_1" xmlns="http://www.w3.org/2000/svg" xmlns:xlink="http://www.w3.org/1999/xlink" x="0px" y="0px"
	 width="791.726px" height="129px" viewBox="0 0 791.726 129" enable-background="new 0 0 791.726 129" xml:space="preserve">
<g>
	<path fill="#FFFFFF" d="M67.3,74.196c0,8.206-3.012,14.795-9.035,19.771c-6.111,4.89-13.531,7.332-22.259,7.332
		c-7.77,0-14.622-2.269-20.557-6.808C9.513,89.953,5.411,83.754,3.143,75.898l11.522-4.714c0.786,2.795,1.876,5.326,3.273,7.594
		c1.395,2.271,3.032,4.212,4.91,5.827c1.876,1.616,3.948,2.88,6.219,3.797c2.269,0.917,4.668,1.375,7.201,1.375
		c5.5,0,9.994-1.418,13.486-4.255c3.49-2.835,5.237-6.612,5.237-11.326c0-3.928-1.44-7.288-4.321-10.082
		c-2.707-2.705-7.77-5.323-15.188-7.856c-7.508-2.705-12.177-4.538-14.01-5.5c-9.951-5.061-14.926-12.524-14.926-22.39
		c0-6.895,2.75-12.786,8.249-17.676C20.381,5.805,27.234,3.36,35.352,3.36c7.156,0,13.355,1.833,18.593,5.5
		c5.237,3.58,8.728,8.075,10.475,13.486l-11.26,4.714c-1.047-3.49-3.122-6.394-6.219-8.707c-3.1-2.312-6.874-3.47-11.326-3.47
		c-4.714,0-8.687,1.309-11.915,3.928c-3.23,2.445-4.845,5.63-4.845,9.558c0,3.23,1.264,6.023,3.797,8.38
		c2.793,2.357,8.859,5.151,18.2,8.38c9.513,3.23,16.301,7.181,20.36,11.85C65.271,61.648,67.3,67.387,67.3,74.196z"/>
	<path fill="#FFFFFF" d="M101.867,100.251c-5.237,0-9.581-1.614-13.028-4.844c-3.449-3.229-5.217-7.725-5.303-13.486V46.045h-11.26
		V35.046h11.26v-19.64h12.046v19.64h15.712v10.999H95.582v31.948c0,4.278,0.829,7.181,2.488,8.707
		c1.657,1.528,3.535,2.292,5.63,2.292c0.959,0,1.899-0.108,2.815-0.327c0.917-0.217,1.768-0.501,2.553-0.851l3.797,10.736
		C109.723,99.683,106.057,100.251,101.867,100.251z"/>
	<path fill="#FFFFFF" d="M145.86,32.952c8.903,0,15.929,2.379,21.081,7.136c5.149,4.759,7.725,11.283,7.725,19.575v39.542h-11.522
		v-8.903h-0.523c-4.976,7.332-11.61,10.998-19.902,10.998c-7.07,0-12.985-2.095-17.741-6.285c-4.759-4.19-7.136-9.427-7.136-15.712
		c0-6.633,2.508-11.915,7.529-15.843c5.019-3.928,11.719-5.892,20.099-5.892c7.156,0,13.048,1.31,17.676,3.928v-2.75
		c0-4.19-1.659-7.746-4.976-10.671c-3.318-2.923-7.201-4.386-11.653-4.386c-6.723,0-12.046,2.838-15.974,8.511l-10.605-6.678
		C125.782,37.142,134.423,32.952,145.86,32.952z M130.279,79.564c0,3.143,1.33,5.761,3.993,7.856
		c2.662,2.095,5.782,3.143,9.362,3.143c5.062,0,9.579-1.876,13.552-5.63c3.971-3.752,5.958-8.161,5.958-13.224
		c-3.754-2.966-8.991-4.452-15.712-4.452c-4.89,0-8.969,1.178-12.242,3.535C131.916,73.148,130.279,76.074,130.279,79.564z"/>
	<path fill="#FFFFFF" d="M188.282,35.046h11.522v10.475h0.524c3.578-8.204,10.953-12.308,22.127-12.308l2.488,0.262v12.57
		l-5.368-0.524c-5.587,0-10.192,1.725-13.813,5.172c-3.623,3.45-5.434,7.836-5.434,13.159v35.352h-12.046V35.046z M263.438,100.251
		c-5.237,0-9.581-1.614-13.028-4.844c-3.449-3.229-5.217-7.725-5.303-13.486V46.045h-11.26V35.046h11.26v-19.64h12.046v19.64h15.712
		v10.999h-15.712v31.948c0,4.278,0.829,7.181,2.488,8.707c1.657,1.528,3.535,2.292,5.63,2.292c0.959,0,1.899-0.108,2.815-0.327
		c0.917-0.217,1.768-0.501,2.553-0.851l3.797,10.736C271.293,99.683,267.627,100.251,263.438,100.251z"/>
	<path fill="#FFFFFF" d="M340.688,99.204h-11.522v-8.903h-0.524c-1.833,3.142-4.648,5.761-8.445,7.856
		c-3.797,2.095-7.748,3.142-11.849,3.142c-7.856,0-13.902-2.246-18.135-6.743c-4.235-4.495-6.35-10.888-6.35-19.182V35.046h12.046
		v39.542c0.262,10.475,5.542,15.712,15.843,15.712c4.8,0,8.816-1.942,12.046-5.827c3.228-3.883,4.844-8.531,4.844-13.944V35.046
		h12.046V99.204z"/>
	<path fill="#FFFFFF" d="M388.74,101.299c-4.714,0-9.014-1.004-12.897-3.011c-3.885-2.007-6.874-4.668-8.969-7.987h-0.524
		l0.524,8.903v28.282h-12.046V35.046h11.522v8.904h0.524c2.095-3.316,5.084-5.978,8.969-7.987c3.883-2.007,8.184-3.011,12.897-3.011
		c8.466,0,15.625,3.318,21.472,9.951c6.023,6.723,9.035,14.796,9.035,24.223c0,9.515-3.012,17.59-9.035,24.223
		C404.364,97.983,397.206,101.299,388.74,101.299z M386.775,90.301c5.761,0,10.606-2.181,14.534-6.547
		c3.928-4.276,5.893-9.82,5.893-16.628c0-6.721-1.965-12.263-5.893-16.629c-3.928-4.364-8.773-6.546-14.534-6.546
		c-5.849,0-10.736,2.183-14.665,6.546c-3.842,4.366-5.761,9.908-5.761,16.629c0,6.809,1.919,12.396,5.761,16.759
		C376.039,88.163,380.926,90.301,386.775,90.301z"/>
	<path fill="#F5BC0F" d="M440.588,99.204c-3.143,0-5.826-1.074-8.052-3.222c-2.227-2.148-3.339-4.74-3.339-7.774
		c0-3.032,1.112-5.602,3.339-7.708c2.226-2.107,4.909-3.161,8.052-3.161s5.805,1.054,7.987,3.161
		c2.181,2.107,3.273,4.677,3.273,7.708c0,3.034-1.093,5.626-3.273,7.774C446.393,98.13,443.73,99.204,440.588,99.204z"/>
	<path fill="#F5BC0F" d="M492.307,101.299c-7.42,0-13.901-2.009-19.443-6.023c-5.545-4.014-9.407-9.558-11.588-16.628l16.235-6.678
		c1.134,4.19,2.967,7.333,5.5,9.427c2.53,2.095,5.63,3.143,9.296,3.143c4.102,0,7.287-1.31,9.559-3.928
		c2.269-2.619,3.403-6.285,3.403-10.999V5.456h17.677v64.026c0,5.237-0.809,9.843-2.423,13.813c-1.616,3.973-3.797,7.29-6.546,9.951
		c-2.75,2.664-5.98,4.671-9.689,6.023C500.576,100.622,496.582,101.299,492.307,101.299z"/>
	<path fill="#F5BC0F" d="M583.306,101.299c-6.984,0-13.466-1.266-19.443-3.797c-5.979-2.531-11.151-6-15.516-10.409
		c-4.366-4.407-7.791-9.601-10.278-15.581c-2.487-5.978-3.731-12.374-3.731-19.182s1.244-13.202,3.731-19.182
		c2.487-5.978,5.912-11.172,10.278-15.581c4.364-4.407,9.536-7.876,15.516-10.409c5.978-2.531,12.459-3.797,19.443-3.797
		c6.982,0,13.464,1.267,19.444,3.797c5.978,2.533,11.149,6.002,15.516,10.409c4.363,4.409,7.79,9.603,10.278,15.581
		c2.487,5.98,3.731,12.373,3.731,19.182s-1.244,13.204-3.731,19.182c-2.488,5.98-5.915,11.174-10.278,15.581
		c-4.366,4.409-9.538,7.878-15.516,10.409C596.77,100.033,590.288,101.299,583.306,101.299z M583.306,84.54
		c4.364,0,8.445-0.786,12.243-2.357c3.797-1.571,7.113-3.752,9.95-6.546c2.836-2.793,5.062-6.175,6.678-10.147
		c1.614-3.971,2.423-8.357,2.423-13.159c0-4.799-0.809-9.186-2.423-13.159c-1.616-3.971-3.842-7.353-6.678-10.147
		c-2.837-2.792-6.153-4.976-9.95-6.547c-3.798-1.571-7.879-2.356-12.243-2.356c-4.365,0-8.445,0.786-12.242,2.356
		c-3.797,1.571-7.115,3.754-9.951,6.547c-2.837,2.795-5.063,6.176-6.677,10.147c-1.616,3.973-2.423,8.359-2.423,13.159
		c0,4.802,0.807,9.188,2.423,13.159c1.613,3.973,3.84,7.354,6.677,10.147c2.836,2.794,6.154,4.975,9.951,6.546
		S578.94,84.54,583.306,84.54z"/>
	<path fill="#F5BC0F" d="M646.545,5.456h36.662c4.014,0,7.768,0.634,11.26,1.898c3.49,1.266,6.524,3.011,9.101,5.237
		c2.573,2.226,4.603,4.824,6.088,7.791c1.483,2.969,2.227,6.154,2.227,9.558c0,4.976-1.201,9.145-3.601,12.504
		c-2.402,3.361-5.392,5.915-8.97,7.66v1.047c4.8,1.747,8.662,4.474,11.588,8.183c2.924,3.711,4.387,8.314,4.387,13.814
		c0,4.016-0.809,7.617-2.423,10.802c-1.616,3.188-3.819,5.915-6.612,8.184c-2.794,2.271-6.045,4.016-9.754,5.237
		c-3.712,1.223-7.705,1.833-11.98,1.833h-37.972V5.456z M681.897,43.688c4.102,0,7.267-1.113,9.493-3.339
		c2.226-2.226,3.339-4.865,3.339-7.921c0-3.054-1.093-5.673-3.273-7.856c-2.184-2.181-5.194-3.273-9.035-3.273h-18.199v22.39
		H681.897z M683.861,82.968c4.452,0,7.856-1.113,10.213-3.339c2.357-2.226,3.535-5.084,3.535-8.576c0-3.49-1.2-6.393-3.601-8.707
		c-2.401-2.312-5.957-3.47-10.671-3.47h-19.116v24.092H683.861z"/>
	<path fill="#F5BC0F" d="M757.577,101.299c-4.016,0-7.855-0.568-11.521-1.702c-3.667-1.133-7.028-2.835-10.082-5.106
		c-3.057-2.269-5.719-5.041-7.987-8.314c-2.271-3.273-4.059-7.091-5.368-11.457l16.629-6.546c1.221,4.713,3.358,8.621,6.415,11.718
		c3.055,3.1,7.07,4.648,12.046,4.648c1.833,0,3.601-0.239,5.303-0.72c1.702-0.479,3.229-1.178,4.583-2.095
		c1.353-0.917,2.422-2.073,3.208-3.47c0.785-1.396,1.179-3.012,1.179-4.845c0-1.745-0.308-3.316-0.917-4.714
		c-0.611-1.395-1.637-2.705-3.077-3.928c-1.44-1.222-3.318-2.4-5.63-3.535c-2.313-1.133-5.172-2.312-8.576-3.535l-5.761-2.095
		c-2.533-0.872-5.086-2.05-7.66-3.535c-2.575-1.483-4.91-3.273-7.005-5.368c-2.095-2.095-3.819-4.561-5.172-7.398
		c-1.354-2.835-2.029-6.043-2.029-9.624c0-3.666,0.72-7.091,2.16-10.278c1.44-3.186,3.49-5.978,6.154-8.38
		c2.661-2.4,5.847-4.276,9.558-5.63c3.709-1.353,7.834-2.03,12.374-2.03c4.713,0,8.793,0.634,12.242,1.898
		c3.447,1.267,6.37,2.881,8.772,4.845c2.399,1.964,4.341,4.125,5.826,6.481c1.483,2.356,2.574,4.583,3.273,6.677l-15.581,6.547
		c-0.874-2.619-2.467-4.976-4.779-7.07c-2.313-2.095-5.479-3.143-9.492-3.143c-3.843,0-7.027,0.896-9.559,2.684
		c-2.532,1.79-3.797,4.125-3.797,7.005c0,2.795,1.222,5.172,3.666,7.136c2.442,1.964,6.328,3.862,11.653,5.695l5.892,1.964
		c3.752,1.309,7.179,2.815,10.278,4.517c3.098,1.702,5.762,3.731,7.987,6.088s3.928,5.041,5.106,8.052
		c1.179,3.012,1.768,6.481,1.768,10.41c0,4.889-0.982,9.1-2.946,12.635s-4.474,6.438-7.528,8.708
		c-3.057,2.271-6.504,3.973-10.344,5.106C764.995,100.73,761.243,101.299,757.577,101.299z"/>
</g>
</svg>
